<svg xmlns="http://www.w3.org/2000/svg" viewBox="0 0 240 270" role="img" aria-labelledby="t d"><title id="t">AYA Spice Haven</title><desc id="d">Legacy distilled AYA Spice Haven, merah marun dengan antique gold.</desc><g transform="translate(60 5)"><defs><linearGradient id="red" x1="0" y1="0" x2="0" y2="1"><stop stop-color="#A63B35"/><stop offset=".52" stop-color="#7B1D1D"/><stop offset="1" stop-color="#5A0F12"/></linearGradient><linearGradient id="gold" x1="0" y1="0" x2="1" y2="1"><stop stop-color="#E1BE62"/><stop offset="1" stop-color="#A9751E"/></linearGradient><path id="petal" d="M0-24C6-20 8-13 0-6C-8-13-6-20 0-24Z"/></defs><path d="M60 5c5 9 13 14 13 23 0 8-5 14-13 20-8-6-13-12-13-20 0-9 8-14 13-23Z" fill="url(#red)" stroke="#C79B3B" stroke-width="3"/><path d="M60 15c3 5 7 9 7 14 0 5-3 8-7 12-4-4-7-7-7-12 0-5 4-9 7-14Z" fill="none" stroke="#C79B3B" stroke-width="2.4"/><path d="M44 47c-13-4-24 0-30 10 11 7 23 5 33-6Z" fill="url(#red)" stroke="#C79B3B" stroke-width="2.3"/><path d="M76 47c13-4 24 0 30 10-11 7-23 5-33-6Z" fill="url(#red)" stroke="#C79B3B" stroke-width="2.3"/><g transform="translate(60 72)" fill="url(#red)" stroke="#C79B3B" stroke-width="2"><use href="#petal"/><use href="#petal" transform="rotate(45)"/><use href="#petal" transform="rotate(90)"/><use href="#petal" transform="rotate(135)"/><use href="#petal" transform="rotate(180)"/><use href="#petal" transform="rotate(225)"/><use href="#petal" transform="rotate(270)"/><use href="#petal" transform="rotate(315)"/><circle r="7" fill="url(#gold)" stroke="#5A0F12" stroke-width="2"/><circle r="2.8" fill="#7B1D1D" stroke="none"/></g><g fill="none" stroke="#C79B3B" stroke-width="2.6" stroke-linecap="round"><path d="M38 83c-9 1-15 6-15 12 0 5 5 8 10 6 4-2 4-6 1-8"/><path d="M82 83c9 1 15 6 15 12 0 5-5 8-10 6-4-2-4-6-1-8"/></g><g fill="#7B1D1D" stroke="#C79B3B" stroke-width="1.4"><circle cx="20" cy="88" r="3.8"/><circle cx="26" cy="104" r="3.5"/><circle cx="100" cy="88" r="3.8"/><circle cx="94" cy="104" r="3.5"/></g><path d="M42 111c12 5 24 5 36 0" fill="none" stroke="#C79B3B" stroke-width="2.4" stroke-linecap="round"/></g><text x="120" y="205" text-anchor="middle" fill="#A9751E" stroke="#E4C16A" stroke-width=".3" font-family="Georgia, Times New Roman, serif" font-size="54" font-weight="700" letter-spacing="2">AYA</text><text x="120" y="238" text-anchor="middle" fill="#A9751E" font-family="Georgia, Times New Roman, serif" font-size="19" font-weight="700" letter-spacing="4.2">SPICE HAVEN</text><path d="M47 250h146" stroke="#C79B3B" stroke-width="1.6"/><path d="M115 250l5-4 5 4-5 4Z" fill="#7B1D1D" stroke="#C79B3B" stroke-width="1"/></svg>